<?xml version="1.0" encoding="utf-8"?>
<!-- Generator: Adobe Illustrator 24.1.2, SVG Export Plug-In . SVG Version: 6.00 Build 0)  -->
<svg version="1.1" id="Layer_1" xmlns="http://www.w3.org/2000/svg" xmlns:xlink="http://www.w3.org/1999/xlink" x="0px" y="0px"
	 viewBox="0 0 91 46" style="enable-background:new 0 0 91 46;" xml:space="preserve">
<style type="text/css">
	.st0{fill:#FCDE76;}
</style>
<g>
	<path class="st0" d="M30,34.3c-0.5,0.5-1,0.8-1.6,1.1c-0.6,0.2-1.1,0.3-1.8,0.3c-0.6,0-1.2-0.1-1.8-0.3c-0.6-0.2-1.1-0.6-1.5-1.1
		c-0.3-0.3-0.7-0.8-1.1-1.6C21.9,31.9,21.4,31,21,30c-0.5-1-0.9-2-1.3-3c-0.4-1-0.8-1.9-1.1-2.7c-0.7,1.5-1.5,2.8-2.3,3.9
		c-0.9,1.1-1.7,2-2.7,2.8c-0.9,0.8-1.9,1.5-2.9,2c-1,0.5-1.9,1-2.8,1.3c-2.1,0.8-4.3,1.2-6.5,1.2c1.5-0.7,2.9-1.6,4-2.7
		c1.1-1.1,2.1-2.4,2.9-3.7c0.8-1.3,1.5-2.8,2-4.3c0.5-1.5,1-3,1.3-4.5c0.8-3.5,1.1-7.2,1-11.1l-2-2.5l10.6,1.8c0.1,3-0.1,5.7-0.4,8
		c-0.4,2.3-0.9,4.4-1.6,6.2c0.7,0.3,1.6,0.7,2.7,1.1c1.1,0.4,2.1,0.9,3.2,1.4c1.1,0.5,2,0.9,2.9,1.4c0.9,0.5,1.5,0.9,1.9,1.2
		c0.5,0.5,0.8,1,1,1.5c0.2,0.6,0.4,1.2,0.4,1.8c0,0.6-0.1,1.2-0.4,1.8C30.8,33.4,30.5,33.9,30,34.3z M25.8,19.6h9.9v-15l-2-3.2
		l10.9,2.9l-0.5,11.5v28.6L35.7,46V22.6H34l-7.3,0.6L25.8,19.6z"/>
	<path class="st0" d="M72,6.3c0,1.9-0.2,3.6-0.6,5.2s-1,2.9-1.7,4.1c1.1,0.6,2.1,1.1,3.1,1.7c1,0.5,1.6,1,2,1.5
		c0.4,0.5,0.7,1,0.9,1.6c0.2,0.6,0.3,1.2,0.2,1.8c-0.1,0.6-0.2,1.2-0.5,1.8c-0.3,0.6-0.7,1.1-1.2,1.5c-1,0.8-2.2,1.2-3.5,1.1
		c-1.3-0.1-2.4-0.7-3.2-1.7c-0.3-0.4-0.7-1-1-1.8c-0.3-0.8-0.6-1.7-0.9-2.7c-1.8,1.4-3.8,2.4-5.9,3.1c-2.1,0.7-4,1.2-5.8,1.5
		c-2.1,0.3-4.2,0.5-6.3,0.4c3.1-1.4,5.7-2.7,7.7-4.1c2-1.3,3.6-2.7,4.8-4c1.2-1.3,1.9-2.6,2.4-4c0.4-1.3,0.6-2.7,0.5-4h-3.3
		l-7.8,0.5l-1.5-3.6H72z M90.1,43.3l1.5,2.8h-27l-3.3,0.3c-1,0.1-1.8-0.2-2.5-0.8C58,44.8,57.6,44,57.6,43l-0.3-12.6L67,31v12h11.6
		c0.8,0,1.4-0.2,2-0.6l1.4-1c0.7-0.5,1.4-0.8,2.2-0.9c0.8-0.2,1.5-0.1,2.3,0c0.8,0.2,1.4,0.5,2.1,1C89.1,41.9,89.7,42.5,90.1,43.3z
		 M88.2,32.9l-8.4,1.6V4.6l-2-3.2l10.9,3l-0.5,10.4V32.9z"/>
</g>
<g>
	<g>
		<path d="M29,33.3c-0.5,0.5-1,0.8-1.6,1.1c-0.6,0.2-1.1,0.3-1.8,0.3c-0.6,0-1.2-0.1-1.8-0.3c-0.6-0.2-1.1-0.6-1.5-1.1
			c-0.3-0.3-0.7-0.8-1.1-1.6C20.9,30.9,20.4,30,20,29c-0.5-1-0.9-2-1.3-3c-0.4-1-0.8-1.9-1.1-2.7c-0.7,1.5-1.5,2.8-2.3,3.9
			c-0.9,1.1-1.7,2-2.7,2.8c-0.9,0.8-1.9,1.5-2.9,2c-1,0.5-1.9,1-2.8,1.3c-2.1,0.8-4.3,1.2-6.5,1.2c1.5-0.7,2.9-1.6,4-2.7
			c1.1-1.1,2.1-2.4,2.9-3.7c0.8-1.4,1.5-2.8,2-4.3c0.5-1.5,1-3,1.3-4.5c0.8-3.5,1.1-7.2,1-11.1l-2-2.5l10.6,1.8c0.1,3-0.1,5.7-0.4,8
			c-0.4,2.3-0.9,4.4-1.6,6.2c0.7,0.3,1.6,0.7,2.7,1.1c1.1,0.4,2.1,0.9,3.2,1.4c1.1,0.5,2,0.9,2.9,1.4c0.9,0.5,1.5,0.9,1.9,1.2
			c0.5,0.5,0.8,1,1,1.5c0.2,0.6,0.4,1.2,0.4,1.8c0,0.6-0.1,1.2-0.4,1.8C29.8,32.4,29.5,32.9,29,33.3z M24.8,18.6h9.9v-15l-2-3.2
			l10.9,2.9l-0.5,11.5v28.6L34.7,45V21.6H33l-7.3,0.6L24.8,18.6z"/>
		<path d="M71,5.3c0,1.9-0.2,3.6-0.6,5.2s-1,2.9-1.7,4.1c1.1,0.6,2.1,1.1,3.1,1.7c1,0.5,1.6,1,2,1.5c0.4,0.5,0.7,1,0.9,1.6
			c0.2,0.6,0.3,1.2,0.2,1.8c-0.1,0.6-0.2,1.2-0.5,1.8c-0.3,0.6-0.7,1.1-1.2,1.5c-1,0.8-2.2,1.2-3.5,1.1c-1.3-0.1-2.4-0.7-3.2-1.7
			c-0.3-0.4-0.7-1-1-1.8c-0.3-0.8-0.6-1.7-0.9-2.7c-1.8,1.4-3.8,2.4-5.9,3.1c-2.1,0.7-4,1.2-5.8,1.5c-2.1,0.3-4.2,0.5-6.3,0.4
			c3.1-1.4,5.7-2.7,7.7-4.1c2-1.3,3.6-2.7,4.8-4c1.2-1.3,1.9-2.6,2.4-4c0.4-1.3,0.6-2.7,0.5-4h-3.3l-7.8,0.5l-1.5-3.6H71z
			 M89.1,42.3l1.5,2.8h-27l-3.3,0.3c-1,0.1-1.8-0.2-2.5-0.8C57,43.8,56.6,43,56.6,42l-0.3-12.6L66,30v12h11.6c0.8,0,1.4-0.2,2-0.6
			l1.4-1c0.7-0.5,1.4-0.8,2.2-0.9c0.8-0.2,1.5-0.1,2.3,0c0.8,0.2,1.4,0.5,2.1,1C88.1,40.9,88.7,41.5,89.1,42.3z M87.2,31.9l-8.4,1.6
			V3.6l-2-3.2l10.9,3l-0.5,10.4V31.9z"/>
	</g>
</g>
</svg>
